<svg xmlns="http://www.w3.org/2000/svg" width="530" height="581" viewBox="0 0 530 581" fill="none">
  <path d="M410.218 13.7778C314.023 -4.59261 214.127 -4.59261 117.932 13.7778C75.3839 22.963 21.7365 74.4002 12.4869 114.815C-4.1623 193.808 -4.1623 274.638 12.4869 353.631C23.5864 394.046 77.2338 445.483 117.932 454.668C119.782 454.668 121.632 456.505 121.632 458.342V574.076C121.632 579.587 129.031 583.261 132.731 577.75L188.229 520.802C188.229 520.802 232.626 474.876 240.026 467.527C240.026 467.527 241.876 465.69 243.726 465.69C299.223 467.527 356.571 462.016 412.068 452.831C454.616 443.646 508.264 392.209 517.513 351.794C534.162 272.801 534.162 191.971 517.513 112.978C506.414 74.4002 452.766 22.963 410.218 13.7778ZM412.068 359.142C402.819 377.512 391.719 392.209 373.22 401.394C367.67 403.231 362.12 405.068 356.571 406.905C349.171 405.068 343.621 403.231 338.072 401.394C278.874 377.512 223.377 344.446 178.979 296.682C154.93 269.127 134.581 237.897 117.932 204.83C110.532 188.297 103.133 173.601 97.5829 157.067C92.0331 142.371 101.283 127.674 110.532 116.652C119.782 105.63 130.881 98.2818 143.831 92.7707C153.08 87.2595 162.33 90.9336 169.73 98.2818C184.529 116.652 199.328 135.023 210.428 155.23C217.827 168.089 215.977 182.786 203.028 191.971C199.328 193.808 197.478 195.645 193.778 199.319C191.928 201.156 188.229 202.993 186.379 206.667C182.679 212.178 182.679 217.69 184.529 223.201C199.328 265.453 227.077 298.519 269.625 316.89C277.024 320.564 282.574 322.401 291.824 322.401C304.773 320.564 310.323 305.868 319.572 298.519C328.822 291.171 339.921 291.171 351.021 296.682C360.27 302.194 369.52 309.542 380.619 316.89C389.869 324.238 399.119 329.749 408.368 337.097C413.918 340.771 415.768 349.957 412.068 359.142ZM334.372 221.364C330.672 221.364 332.522 221.364 334.372 221.364C326.972 221.364 325.122 217.69 323.272 212.178C323.272 208.504 323.272 202.993 321.422 199.319C319.572 191.971 315.873 184.623 308.473 179.112C304.773 177.275 301.073 175.438 297.373 173.601C291.824 171.763 288.124 171.764 282.574 171.764C277.024 169.926 275.175 166.252 275.175 160.741C275.175 157.067 280.724 153.393 284.424 153.393C314.023 155.23 336.222 171.763 339.921 206.667C339.921 208.504 339.921 212.178 339.921 214.016C339.921 217.69 338.071 221.364 334.372 221.364ZM315.873 140.534C306.623 136.86 297.373 133.186 286.274 131.349C282.574 131.349 277.024 129.512 273.325 129.512C267.775 129.512 264.075 125.837 265.925 120.326C265.925 114.815 269.625 111.141 275.175 112.978C293.674 114.815 310.323 118.489 326.972 125.837C360.271 142.371 378.77 169.926 384.319 206.667C384.319 208.504 384.319 210.341 384.319 212.178C384.319 215.853 384.319 219.527 384.319 225.038C384.319 226.875 384.319 228.712 384.319 230.549C382.469 237.897 369.52 239.734 367.67 230.549C367.67 228.712 365.82 225.038 365.82 223.201C365.82 206.667 362.12 190.134 354.721 175.438C343.621 158.904 330.672 147.882 315.873 140.534ZM415.768 250.756C410.218 250.756 406.518 245.245 406.518 239.734C406.518 228.712 404.668 217.69 402.819 206.667C395.419 147.882 347.321 100.119 289.974 90.9336C280.724 89.0966 271.475 89.0966 264.075 87.2595C258.525 87.2595 251.126 87.2595 249.276 79.9114C247.426 74.4002 252.976 68.8891 258.525 68.8891C260.375 68.8891 262.225 68.8891 262.225 68.8891C338.072 70.7262 265.925 68.8891 262.225 68.8891C339.922 70.7262 404.668 122.163 417.618 199.319C419.468 212.178 421.318 225.038 421.318 239.734C425.017 245.245 421.318 250.756 415.768 250.756Z" fill="#C93F4F"/>
</svg>