<svg width="55" height="59" viewBox="0 0 55 59" fill="none" xmlns="http://www.w3.org/2000/svg">
<g id="icon_new-white 1" clip-path="url(#clip0_119_1050)">
<g id="Group 3">
<path id="Vector" d="M48.8752 5.55689C47.4203 4.21443 41.5409 -0.053677 28.4449 -0.111663C28.4449 -0.111663 13.0013 -1.04295 5.47284 5.86264C1.28204 10.0543 -0.192202 16.1876 -0.347709 23.7917C-0.503217 31.3957 -0.704412 45.6462 13.0321 49.5102H13.0453L13.0365 55.4063C13.0365 55.4063 12.9486 57.7933 14.5204 58.2801C16.4216 58.8705 17.5374 57.0562 19.3525 55.1005C20.3488 54.0269 21.7247 52.4499 22.7614 51.2445C32.156 52.0352 39.3814 50.228 40.202 49.9609C42.0988 49.3459 52.8323 47.9709 54.5781 33.7213C56.38 19.0342 53.7065 9.74417 48.8752 5.55689ZM50.4672 32.6679C48.9938 44.5655 40.2881 45.3132 38.6829 45.8281C38.0003 46.0477 31.6543 47.6265 23.6742 47.1055C23.6742 47.1055 17.7281 54.2791 15.8708 56.1443C15.5808 56.436 15.2399 56.5537 15.0124 56.4957C14.6926 56.4175 14.6047 56.0388 14.6082 55.4853C14.6135 54.6946 14.6592 45.6875 14.6592 45.6875C3.03919 42.4614 3.71657 30.3327 3.84836 23.9815C3.98014 17.6302 5.17325 12.4273 8.71741 8.92798C15.0853 3.16014 28.2033 4.02202 28.2033 4.02202C39.2812 4.07035 44.5896 7.40629 45.8204 8.52383C49.9076 12.0232 51.9898 20.3969 50.4672 32.6644V32.6679Z" fill="#C93F4F"/>
</g>
<path id="Vector_2" d="M33.8354 23.4593C33.6913 20.5547 32.2159 19.0292 29.4092 18.8828" stroke="#C93F4F" stroke-width="1.48127" stroke-linecap="round" stroke-linejoin="round"/>
<path id="Vector_3" d="M37.6354 24.7333C37.694 22.0273 36.8924 19.7664 35.2308 17.9507C33.5615 16.1285 31.2508 15.1252 28.2856 14.9082" stroke="#C93F4F" stroke-width="1.48127" stroke-linecap="round" stroke-linejoin="round"/>
<path id="Vector_4" d="M41.5259 26.2551C41.4902 21.5594 40.0871 17.8612 37.3166 15.1604C34.5462 12.4597 31.1007 11.095 26.9802 11.0663" stroke="#C93F4F" stroke-width="1.48127" stroke-linecap="round" stroke-linejoin="round"/>
<path id="Vector_5" d="M29.556 33.3797C29.556 33.3797 30.5971 33.4675 31.1577 32.777L32.2506 31.402C32.7778 30.7202 34.0499 30.2853 35.2958 30.9794C36.2293 31.5118 37.1357 32.0907 38.0114 32.7137C38.8382 33.3217 40.5312 34.7344 40.5364 34.7344C41.343 35.4153 41.5292 36.4151 40.9801 37.4694C40.9801 37.4756 40.9757 37.4861 40.9757 37.4914C40.3709 38.5398 39.6031 39.4853 38.7011 40.2923C38.6906 40.2976 38.6906 40.3028 38.6809 40.3081C37.8972 40.9629 37.1273 41.3351 36.3711 41.4248C36.2598 41.4442 36.1466 41.4513 36.0338 41.4458C35.7003 41.4491 35.3686 41.398 35.0515 41.2947L35.0269 41.2587C33.8619 40.9301 31.9168 40.1078 28.6775 38.3208C26.8029 37.2988 25.0183 36.12 23.3428 34.7968C22.5029 34.134 21.7018 33.4235 20.9434 32.6689L20.8625 32.5881L20.7817 32.5072L20.7009 32.4255C20.6737 32.3992 20.6473 32.3719 20.6201 32.3447C19.8654 31.5863 19.155 30.7852 18.4922 29.9453C17.1692 28.2699 15.9903 26.4856 14.9682 24.6115C13.1812 21.3713 12.3588 19.4279 12.0302 18.2612L11.9942 18.2366C11.8912 17.9195 11.8405 17.5877 11.844 17.2543C11.8378 17.1415 11.8446 17.0283 11.8642 16.917C11.9585 16.1626 12.3313 15.3923 12.9826 14.6063C12.9879 14.5966 12.9932 14.5966 12.9984 14.5861C13.8052 13.6841 14.7507 12.9165 15.7993 12.3124C15.8046 12.3124 15.8151 12.3071 15.8213 12.3071C16.8756 11.758 17.8754 11.9442 18.5554 12.7464C18.5607 12.7516 19.9708 14.4447 20.5761 15.2714C21.1992 16.148 21.7781 17.0552 22.3104 17.9897C23.0045 19.2346 22.5696 20.5094 21.8878 21.0348L20.5129 22.1278C19.8188 22.6883 19.9102 23.7294 19.9102 23.7294C19.9102 23.7294 21.9467 31.4371 29.556 33.3797Z" fill="#C93F4F"/>
</g>
<defs>
<clipPath id="clip0_119_1050">
<rect width="55.525" height="58.5508" fill="white" transform="translate(-0.38208 -0.153931)"/>
</clipPath>
</defs>
</svg>
